M48
; DRILL file {KiCad 8.0.6-1.fc40} date 2024-12-03T09:17:48+0100
; FORMAT={-:-/ absolute / inch / decimal}
; #@! TF.CreationDate,2024-12-03T09:17:48+01:00
; #@! TF.GenerationSoftware,Kicad,Pcbnew,8.0.6-1.fc40
; #@! TF.FileFunction,MixedPlating,1,2
FMAT,2
INCH
; #@! TA.AperFunction,Plated,PTH,ViaDrill
T1C0.0276
; #@! TA.AperFunction,Plated,PTH,ComponentDrill
T2C0.0315
; #@! TA.AperFunction,Plated,PTH,ComponentDrill
T3C0.0394
; #@! TA.AperFunction,Plated,PTH,ComponentDrill
T4C0.0433
; #@! TA.AperFunction,Plated,PTH,ComponentDrill
T5C0.0591
; #@! TA.AperFunction,Plated,PTH,ComponentDrill
T6C0.1378
; #@! TA.AperFunction,NonPlated,NPTH,ComponentDrill
T7C0.1378
%
G90
G05
T1
X2.2638Y-3.5394
X2.5079Y-3.689
X2.6496Y-4.6969
X2.7085Y-4.8799
X2.8094Y-4.9173
X3.0709Y-4.6339
X3.2854Y-4.5295
X3.5079Y-4.5394
X3.6063Y-4.5354
X3.6535Y-3.5079
X3.7126Y-4.5295
X3.7559Y-2.8346
X3.9441Y-4.4456
X4.5236Y-3.0236
X4.622Y-3.0236
X5.5276Y-3.8346
X5.5315Y-4.9252
X5.6299Y-4.9252
X5.9055Y-3.9961
X5.9055Y-4.3858
X6.1378Y-3.122
X6.1417Y-3.2087
T2
X2.4134Y-4.9409
X2.4134Y-5.1378
X2.6732Y-5.0787
X2.752Y-5.0787
X2.8307Y-5.0787
X2.8819Y-3.3071
X2.9094Y-3.9646
X2.9094Y-5.0787
X3.0787Y-3.3071
X3.1063Y-3.9646
X3.3622Y-3.1063
X3.3622Y-3.3031
X3.4449Y-2.9291
X3.5472Y-3.2598
X3.5472Y-3.4567
X3.6417Y-2.9291
X3.685Y-3.063
X3.685Y-3.2598
X3.8307Y-3.1016
X3.8307Y-3.4016
X3.8465Y-2.9409
X3.9307Y-3.1016
X3.9307Y-3.4016
X4.0307Y-3.1016
X4.0307Y-3.4016
X4.1307Y-3.1016
X4.1307Y-3.4016
X4.2307Y-3.1016
X4.2307Y-3.4016
X4.2465Y-2.9409
X4.4627Y-2.931
X4.5606Y-3.8583
X4.5606Y-3.9961
X4.5606Y-4.2717
X4.5606Y-4.4094
X4.5638Y-3.1693
X4.5638Y-3.3071
X4.5638Y-3.4449
X4.5638Y-3.5827
X4.5638Y-3.7205
X4.5638Y-4.1339
X4.6595Y-2.931
X4.9606Y-2.8575
X4.9606Y-3.8583
X4.9606Y-3.9961
X4.9606Y-4.2717
X4.9606Y-4.4094
X4.9638Y-3.1693
X4.9638Y-3.3071
X4.9638Y-3.4449
X4.9638Y-3.5827
X4.9638Y-3.7205
X4.9638Y-4.1339
X5.1575Y-2.8575
X5.374Y-2.8575
X5.374Y-4.5079
X5.374Y-4.7559
X5.4528Y-4.7559
X5.5315Y-4.7559
X5.5709Y-2.8575
X5.5709Y-4.5079
X5.6102Y-4.7559
X5.7874Y-2.8575
X5.9843Y-2.8575
X6.0039Y-4.0888
X6.0039Y-4.2856
X6.0433Y-3.2087
X6.0433Y-3.4055
X6.1614Y-4.0447
X6.1614Y-4.1447
X6.1614Y-4.2447
X6.1614Y-4.3447
X6.2008Y-2.8575
X6.2992Y-3.1693
X6.2992Y-3.248
X6.2992Y-3.3268
X6.2992Y-3.4055
X6.3976Y-2.8575
X6.4614Y-4.0447
X6.4614Y-4.1447
X6.4614Y-4.2447
X6.4614Y-4.3447
X6.5551Y-3.2087
X6.5551Y-3.4055
X6.5945Y-4.0888
X6.5945Y-4.2856
X6.6142Y-2.8575
X6.7323Y-3.9961
X6.7323Y-4.3961
X6.7913Y-3.1693
X6.7913Y-3.248
X6.7913Y-3.3268
X6.7913Y-3.4055
X6.811Y-2.8575
X7.0472Y-3.2087
X7.0472Y-3.4055
X7.2835Y-3.1693
X7.2835Y-3.248
X7.2835Y-3.3268
X7.2835Y-3.4055
T3
X2.1654Y-3.4078
X2.2654Y-3.4078
X2.3654Y-3.4078
X3.2087Y-5.0512
X3.4449Y-2.7441
X3.5433Y-5.0512
X3.5449Y-2.7441
X3.5472Y-2.5236
X3.6449Y-2.7441
X3.8535Y-5.0512
X3.9512Y-2.7441
X3.9535Y-5.0512
X4.0039Y-2.5236
X4.0512Y-2.7441
X4.0535Y-5.0512
X4.1535Y-5.0512
X4.2535Y-5.0512
X4.3535Y-5.0512
X4.3609Y-2.7414
X4.3622Y-2.5236
X4.4609Y-2.7414
X4.5609Y-2.7414
X4.6457Y-5.0512
X4.6609Y-2.7414
X4.6614Y-2.5236
X4.9587Y-2.6797
X4.9803Y-5.0512
X5.0587Y-2.6797
X5.1587Y-2.6797
X5.3543Y-5.0512
X5.374Y-2.6803
X5.474Y-2.6803
X5.574Y-2.6803
X5.6299Y-5.0512
X5.7854Y-2.6797
X5.8854Y-2.6797
X5.9854Y-2.6797
X6.1024Y-5.0512
X6.2008Y-2.6803
X6.3008Y-2.6803
X6.4008Y-2.6803
X6.5354Y-5.0512
X6.6126Y-2.6803
X6.6323Y-4.5276
X6.7126Y-2.6803
X6.7323Y-4.5276
X6.811Y-5.0512
X6.8126Y-2.6803
X7.0669Y-3.9884
X7.0669Y-4.0974
X7.0669Y-4.2065
X7.0669Y-4.3156
X7.0669Y-4.4246
X7.1787Y-4.0429
X7.1787Y-4.152
X7.1787Y-4.261
X7.1787Y-4.3701
T4
X2.0094Y-3.7913
X2.0094Y-4.7913
X2.0835Y-3.0709
X2.1094Y-3.7913
X2.1094Y-4.7913
X2.2094Y-3.7913
X2.2094Y-4.7913
X2.3094Y-3.7913
X2.3094Y-4.7913
X2.4094Y-3.7913
X2.4094Y-4.7913
X2.4835Y-3.0709
X2.5094Y-3.7913
X2.5094Y-4.7913
X2.6094Y-3.7913
X2.6094Y-4.7913
X2.7094Y-3.7913
X2.7094Y-4.7913
X2.7764Y-3.4409
X2.8094Y-3.7913
X2.8094Y-4.7913
X2.9094Y-3.7913
X2.9094Y-4.7913
X2.9787Y-3.1587
X3.0094Y-3.7913
X3.0094Y-4.7913
X3.0787Y-3.1587
X3.1094Y-3.7913
X3.1094Y-4.7913
X3.1764Y-3.4409
X3.1787Y-3.1587
X3.2094Y-3.7913
X3.2094Y-4.7913
X3.3094Y-3.7913
X3.3094Y-4.7913
X3.4094Y-3.7913
X3.4094Y-4.7913
X3.5094Y-3.7913
X3.5094Y-4.7913
X3.6094Y-3.7913
X3.6094Y-4.7913
X3.7094Y-3.7913
X3.7094Y-4.7913
X3.8094Y-3.7913
X3.8094Y-4.7913
T5
X2.4803Y-2.7559
X2.6803Y-2.7559
T6
X2.126Y-2.4803
X2.126Y-5.0394
X7.0787Y-3.7144
X7.0787Y-4.6986
X7.2441Y-2.4803
X7.2441Y-5.0394
T7
X3.0787Y-2.5028
M30
