G04 #@! TF.GenerationSoftware,KiCad,Pcbnew,8.0.6-1.fc41*
G04 #@! TF.CreationDate,2024-12-03T00:06:40+01:00*
G04 #@! TF.ProjectId,ihm_but2,69686d5f-6275-4743-922e-6b696361645f,rev?*
G04 #@! TF.SameCoordinates,Original*
G04 #@! TF.FileFunction,Copper,L2,Bot*
G04 #@! TF.FilePolarity,Positive*
%FSLAX46Y46*%
G04 Gerber Fmt 4.6, Leading zero omitted, Abs format (unit mm)*
G04 Created by KiCad (PCBNEW 8.0.6-1.fc41) date 2024-12-03 00:06:40*
%MOMM*%
%LPD*%
G01*
G04 APERTURE LIST*
G04 #@! TA.AperFunction,ComponentPad*
%ADD10C,1.800000*%
G04 #@! TD*
G04 #@! TA.AperFunction,ComponentPad*
%ADD11C,2.500000*%
G04 #@! TD*
G04 #@! TA.AperFunction,ComponentPad*
%ADD12R,1.700000X1.700000*%
G04 #@! TD*
G04 #@! TA.AperFunction,ComponentPad*
%ADD13O,1.700000X1.700000*%
G04 #@! TD*
G04 #@! TA.AperFunction,ViaPad*
%ADD14C,4.000000*%
G04 #@! TD*
G04 #@! TA.AperFunction,Conductor*
%ADD15C,1.000000*%
G04 #@! TD*
G04 APERTURE END LIST*
D10*
X184960000Y-107460000D03*
X187500000Y-112540000D03*
X190040000Y-107460000D03*
D11*
X150500000Y-106000000D03*
X155500000Y-106000000D03*
X150500000Y-111000000D03*
X155500000Y-111000000D03*
X167500000Y-106000000D03*
X172500000Y-106000000D03*
X167500000Y-111000000D03*
X172500000Y-111000000D03*
D10*
X185000000Y-102000000D03*
X190000000Y-102000000D03*
D12*
X128175000Y-117050000D03*
D13*
X128175000Y-114510000D03*
X128175000Y-111970000D03*
X128175000Y-109430000D03*
X128175000Y-106890000D03*
X128175000Y-104350000D03*
D11*
X133000000Y-106000000D03*
X138000000Y-106000000D03*
X133000000Y-111000000D03*
X138000000Y-111000000D03*
D14*
X127360000Y-98500000D03*
X168000000Y-98500000D03*
D15*
X128000000Y-114660000D02*
X129840000Y-114660000D01*
X156750000Y-114250000D02*
X160000000Y-111000000D01*
X160000000Y-111000000D02*
X167500000Y-111000000D01*
X130250000Y-114250000D02*
X156750000Y-114250000D01*
X129840000Y-114660000D02*
X130250000Y-114250000D01*
X167500000Y-111000000D02*
X172500000Y-111000000D01*
X128000000Y-109580000D02*
X131580000Y-109580000D01*
X133000000Y-111000000D02*
X138000000Y-111000000D01*
X131580000Y-109580000D02*
X133000000Y-111000000D01*
X190040000Y-107460000D02*
X190040000Y-102040000D01*
X131500000Y-104500000D02*
X128000000Y-104500000D01*
X172500000Y-106000000D02*
X180500000Y-98000000D01*
X180500000Y-98000000D02*
X186000000Y-98000000D01*
X133000000Y-106000000D02*
X172500000Y-106000000D01*
X133000000Y-106000000D02*
X131500000Y-104500000D01*
X190040000Y-102040000D02*
X190000000Y-102000000D01*
X186000000Y-98000000D02*
X190000000Y-102000000D01*
X182840000Y-117200000D02*
X187500000Y-112540000D01*
X172500000Y-117200000D02*
X128000000Y-117200000D01*
X172500000Y-117200000D02*
X182840000Y-117200000D01*
X132305455Y-108537689D02*
X183882311Y-108537689D01*
X183882311Y-108537689D02*
X184960000Y-107460000D01*
X130807767Y-107040000D02*
X130807767Y-107040001D01*
X185000000Y-102000000D02*
X185000000Y-107420000D01*
X185000000Y-107420000D02*
X184960000Y-107460000D01*
X128000000Y-107040000D02*
X130807767Y-107040000D01*
X130807767Y-107040001D02*
X132305455Y-108537689D01*
X150500000Y-111000000D02*
X155500000Y-111000000D01*
X130500000Y-113000000D02*
X148500000Y-113000000D01*
X128000000Y-112120000D02*
X129620000Y-112120000D01*
X148500000Y-113000000D02*
X150500000Y-111000000D01*
X129620000Y-112120000D02*
X130500000Y-113000000D01*
G04 #@! TA.AperFunction,Conductor*
G36*
X125060314Y-95519685D02*
G01*
X125106069Y-95572489D01*
X125116013Y-95641647D01*
X125086988Y-95705203D01*
X125071311Y-95720366D01*
X124947493Y-95820631D01*
X124947485Y-95820638D01*
X124680638Y-96087485D01*
X124680631Y-96087493D01*
X124443135Y-96380776D01*
X124237599Y-96697275D01*
X124066267Y-97033531D01*
X123931023Y-97385852D01*
X123833347Y-97750385D01*
X123833346Y-97750392D01*
X123774310Y-98123127D01*
X123754559Y-98499999D01*
X123754559Y-98500000D01*
X123774310Y-98876872D01*
X123833346Y-99249607D01*
X123833347Y-99249614D01*
X123931023Y-99614147D01*
X124066267Y-99966468D01*
X124237599Y-100302725D01*
X124443135Y-100619223D01*
X124443137Y-100619225D01*
X124680635Y-100912511D01*
X124947489Y-101179365D01*
X124947493Y-101179368D01*
X125240776Y-101416864D01*
X125557274Y-101622400D01*
X125557279Y-101622403D01*
X125893535Y-101793734D01*
X126245857Y-101928978D01*
X126610387Y-102026653D01*
X126983129Y-102085690D01*
X127339155Y-102104348D01*
X127359999Y-102105441D01*
X127360000Y-102105441D01*
X127360001Y-102105441D01*
X127379752Y-102104405D01*
X127736871Y-102085690D01*
X128109613Y-102026653D01*
X128474143Y-101928978D01*
X128826465Y-101793734D01*
X129162721Y-101622403D01*
X129479225Y-101416863D01*
X129772511Y-101179365D01*
X130039365Y-100912511D01*
X130276863Y-100619225D01*
X130482403Y-100302721D01*
X130653734Y-99966465D01*
X130788978Y-99614143D01*
X130886653Y-99249613D01*
X130945690Y-98876871D01*
X130965441Y-98500000D01*
X130945690Y-98123129D01*
X130886653Y-97750387D01*
X130788978Y-97385857D01*
X130653734Y-97033535D01*
X130482403Y-96697280D01*
X130276863Y-96380775D01*
X130103490Y-96166676D01*
X130076598Y-96102188D01*
X130088840Y-96033399D01*
X130136329Y-95982149D01*
X130203987Y-95964709D01*
X130220790Y-95966421D01*
X142801574Y-98123127D01*
X144999999Y-98500000D01*
X145000000Y-98500000D01*
X145000001Y-98500000D01*
X161957220Y-95593048D01*
X162489599Y-95501782D01*
X162510551Y-95500000D01*
X165633275Y-95500000D01*
X165700314Y-95519685D01*
X165746069Y-95572489D01*
X165756013Y-95641647D01*
X165726988Y-95705203D01*
X165711311Y-95720366D01*
X165587493Y-95820631D01*
X165587485Y-95820638D01*
X165320638Y-96087485D01*
X165320631Y-96087493D01*
X165083135Y-96380776D01*
X164877599Y-96697275D01*
X164706267Y-97033531D01*
X164571023Y-97385852D01*
X164473347Y-97750385D01*
X164473346Y-97750392D01*
X164414310Y-98123127D01*
X164394559Y-98499999D01*
X164394559Y-98500000D01*
X164414310Y-98876872D01*
X164473346Y-99249607D01*
X164473347Y-99249614D01*
X164571023Y-99614147D01*
X164706267Y-99966468D01*
X164877599Y-100302725D01*
X165083135Y-100619223D01*
X165083137Y-100619225D01*
X165320635Y-100912511D01*
X165587489Y-101179365D01*
X165587493Y-101179368D01*
X165880776Y-101416864D01*
X166197274Y-101622400D01*
X166197279Y-101622403D01*
X166533535Y-101793734D01*
X166885857Y-101928978D01*
X167250387Y-102026653D01*
X167623129Y-102085690D01*
X167979155Y-102104348D01*
X167999999Y-102105441D01*
X168000000Y-102105441D01*
X168000001Y-102105441D01*
X168019752Y-102104405D01*
X168376871Y-102085690D01*
X168749613Y-102026653D01*
X169114143Y-101928978D01*
X169466465Y-101793734D01*
X169802721Y-101622403D01*
X170119225Y-101416863D01*
X170412511Y-101179365D01*
X170679365Y-100912511D01*
X170916863Y-100619225D01*
X171122403Y-100302721D01*
X171293734Y-99966465D01*
X171428978Y-99614143D01*
X171526653Y-99249613D01*
X171585690Y-98876871D01*
X171605441Y-98500000D01*
X171585690Y-98123129D01*
X171526653Y-97750387D01*
X171428978Y-97385857D01*
X171293734Y-97033535D01*
X171122403Y-96697280D01*
X170916863Y-96380775D01*
X170679365Y-96087489D01*
X170412511Y-95820635D01*
X170288689Y-95720366D01*
X170248978Y-95662879D01*
X170246650Y-95593048D01*
X170282445Y-95533044D01*
X170344999Y-95501918D01*
X170366725Y-95500000D01*
X197876000Y-95500000D01*
X197943039Y-95519685D01*
X197988794Y-95572489D01*
X198000000Y-95624000D01*
X198000000Y-118376000D01*
X197980315Y-118443039D01*
X197927511Y-118488794D01*
X197876000Y-118500000D01*
X130684225Y-118500000D01*
X130617186Y-118480315D01*
X130571431Y-118427511D01*
X130561487Y-118358353D01*
X130563651Y-118347053D01*
X130572556Y-118309955D01*
X130610683Y-118151148D01*
X130617481Y-118064769D01*
X130642366Y-117999482D01*
X130698597Y-117958011D01*
X130741099Y-117950500D01*
X182913920Y-117950500D01*
X183011462Y-117931096D01*
X183058913Y-117921658D01*
X183195495Y-117865084D01*
X183244729Y-117832186D01*
X183318416Y-117782952D01*
X186277800Y-114823565D01*
X186339121Y-114790082D01*
X186408812Y-114795066D01*
X186425218Y-114802587D01*
X186433236Y-114806995D01*
X186433242Y-114806998D01*
X186725771Y-114922818D01*
X186725774Y-114922819D01*
X187030523Y-115001065D01*
X187030527Y-115001066D01*
X187096010Y-115009338D01*
X187342670Y-115040499D01*
X187342679Y-115040499D01*
X187342682Y-115040500D01*
X187342684Y-115040500D01*
X187657316Y-115040500D01*
X187657318Y-115040500D01*
X187657321Y-115040499D01*
X187657329Y-115040499D01*
X187843593Y-115016968D01*
X187969473Y-115001066D01*
X188274225Y-114922819D01*
X188293754Y-114915087D01*
X188566757Y-114806998D01*
X188566758Y-114806997D01*
X188566756Y-114806997D01*
X188566766Y-114806994D01*
X188842484Y-114655416D01*
X189097030Y-114470478D01*
X189326390Y-114255094D01*
X189526947Y-114012663D01*
X189695537Y-113747007D01*
X189829503Y-113462315D01*
X189926731Y-113163079D01*
X189985688Y-112854015D01*
X189986861Y-112835371D01*
X190005444Y-112540005D01*
X190005444Y-112539994D01*
X189985689Y-112225995D01*
X189985688Y-112225988D01*
X189985688Y-112225985D01*
X189926731Y-111916921D01*
X189829503Y-111617685D01*
X189695537Y-111332993D01*
X189526947Y-111067337D01*
X189525946Y-111066127D01*
X189326393Y-110824909D01*
X189326391Y-110824907D01*
X189286159Y-110787126D01*
X189097030Y-110609522D01*
X189097027Y-110609520D01*
X189097021Y-110609515D01*
X188842495Y-110424591D01*
X188842488Y-110424586D01*
X188842484Y-110424584D01*
X188566766Y-110273006D01*
X188566763Y-110273004D01*
X188566758Y-110273002D01*
X188566757Y-110273001D01*
X188274228Y-110157181D01*
X188274225Y-110157180D01*
X187969476Y-110078934D01*
X187969463Y-110078932D01*
X187657329Y-110039500D01*
X187657318Y-110039500D01*
X187342682Y-110039500D01*
X187342670Y-110039500D01*
X187030536Y-110078932D01*
X187030523Y-110078934D01*
X186725774Y-110157180D01*
X186725771Y-110157181D01*
X186433242Y-110273001D01*
X186433241Y-110273002D01*
X186157516Y-110424584D01*
X186157504Y-110424591D01*
X185902978Y-110609515D01*
X185902968Y-110609523D01*
X185673608Y-110824907D01*
X185673606Y-110824909D01*
X185473054Y-111067334D01*
X185473051Y-111067338D01*
X185304464Y-111332990D01*
X185304461Y-111332996D01*
X185170499Y-111617678D01*
X185170497Y-111617683D01*
X185073270Y-111916916D01*
X185014311Y-112225988D01*
X185014310Y-112225995D01*
X184994556Y-112539994D01*
X184994556Y-112540005D01*
X185014310Y-112854004D01*
X185014311Y-112854011D01*
X185073270Y-113163083D01*
X185170497Y-113462315D01*
X185244049Y-113618622D01*
X185254781Y-113687662D01*
X185226484Y-113751545D01*
X185219531Y-113759099D01*
X182565451Y-116413181D01*
X182504128Y-116446666D01*
X182477770Y-116449500D01*
X130749500Y-116449500D01*
X130682461Y-116429815D01*
X130636706Y-116377011D01*
X130625500Y-116325500D01*
X130625500Y-116137125D01*
X130625500Y-116137118D01*
X130610683Y-115948852D01*
X130551873Y-115703889D01*
X130463919Y-115491549D01*
X130456451Y-115422085D01*
X130460547Y-115405791D01*
X130553206Y-115120619D01*
X130556898Y-115101263D01*
X130588794Y-115039102D01*
X130649236Y-115004051D01*
X130678701Y-115000500D01*
X156823920Y-115000500D01*
X156921462Y-114981096D01*
X156968913Y-114971658D01*
X157086821Y-114922819D01*
X157105488Y-114915087D01*
X157105488Y-114915086D01*
X157105495Y-114915084D01*
X157159630Y-114878912D01*
X157228416Y-114832952D01*
X160274549Y-111786819D01*
X160335872Y-111753334D01*
X160362230Y-111750500D01*
X164656868Y-111750500D01*
X164723907Y-111770185D01*
X164769662Y-111822989D01*
X164775659Y-111838936D01*
X164816867Y-111976582D01*
X164948379Y-112281461D01*
X164948385Y-112281474D01*
X165114406Y-112569031D01*
X165312678Y-112835356D01*
X165312683Y-112835362D01*
X165312690Y-112835371D01*
X165540553Y-113076893D01*
X165724689Y-113231400D01*
X165794912Y-113290325D01*
X165794920Y-113290331D01*
X166072330Y-113472787D01*
X166072334Y-113472789D01*
X166369061Y-113621811D01*
X166681082Y-113735377D01*
X166681088Y-113735378D01*
X166681090Y-113735379D01*
X167004161Y-113811949D01*
X167004168Y-113811950D01*
X167004177Y-113811952D01*
X167333977Y-113850500D01*
X167333984Y-113850500D01*
X167666016Y-113850500D01*
X167666023Y-113850500D01*
X167995823Y-113811952D01*
X167995832Y-113811949D01*
X167995838Y-113811949D01*
X168269864Y-113747003D01*
X168318918Y-113735377D01*
X168630939Y-113621811D01*
X168927666Y-113472789D01*
X169149126Y-113327132D01*
X169205079Y-113290331D01*
X169205079Y-113290330D01*
X169205085Y-113290327D01*
X169459447Y-113076893D01*
X169687310Y-112835371D01*
X169885594Y-112569030D01*
X169892613Y-112556873D01*
X169943180Y-112508658D01*
X170011787Y-112495434D01*
X170076651Y-112521402D01*
X170107387Y-112556873D01*
X170114406Y-112569031D01*
X170312678Y-112835356D01*
X170312683Y-112835362D01*
X170312690Y-112835371D01*
X170540553Y-113076893D01*
X170724689Y-113231400D01*
X170794912Y-113290325D01*
X170794920Y-113290331D01*
X171072330Y-113472787D01*
X171072334Y-113472789D01*
X171369061Y-113621811D01*
X171681082Y-113735377D01*
X171681088Y-113735378D01*
X171681090Y-113735379D01*
X172004161Y-113811949D01*
X172004168Y-113811950D01*
X172004177Y-113811952D01*
X172333977Y-113850500D01*
X172333984Y-113850500D01*
X172666016Y-113850500D01*
X172666023Y-113850500D01*
X172995823Y-113811952D01*
X172995832Y-113811949D01*
X172995838Y-113811949D01*
X173269864Y-113747003D01*
X173318918Y-113735377D01*
X173630939Y-113621811D01*
X173927666Y-113472789D01*
X174149126Y-113327132D01*
X174205079Y-113290331D01*
X174205079Y-113290330D01*
X174205085Y-113290327D01*
X174459447Y-113076893D01*
X174687310Y-112835371D01*
X174885594Y-112569030D01*
X175051617Y-112281470D01*
X175183133Y-111976581D01*
X175278365Y-111658485D01*
X175336024Y-111331484D01*
X175355331Y-111000000D01*
X175336024Y-110668516D01*
X175291683Y-110417048D01*
X175278368Y-110341532D01*
X175278367Y-110341531D01*
X175278365Y-110341515D01*
X175183133Y-110023419D01*
X175051617Y-109718530D01*
X174968990Y-109575416D01*
X174910547Y-109474189D01*
X174894074Y-109406289D01*
X174916927Y-109340262D01*
X174971848Y-109297071D01*
X175017934Y-109288189D01*
X183204949Y-109288189D01*
X183271988Y-109307874D01*
X183289830Y-109321795D01*
X183362968Y-109390476D01*
X183362978Y-109390484D01*
X183617504Y-109575408D01*
X183617509Y-109575410D01*
X183617516Y-109575416D01*
X183893234Y-109726994D01*
X183893239Y-109726996D01*
X183893241Y-109726997D01*
X183893242Y-109726998D01*
X184185771Y-109842818D01*
X184185774Y-109842819D01*
X184490523Y-109921065D01*
X184490527Y-109921066D01*
X184556010Y-109929338D01*
X184802670Y-109960499D01*
X184802679Y-109960499D01*
X184802682Y-109960500D01*
X184802684Y-109960500D01*
X185117316Y-109960500D01*
X185117318Y-109960500D01*
X185117321Y-109960499D01*
X185117329Y-109960499D01*
X185303593Y-109936968D01*
X185429473Y-109921066D01*
X185734225Y-109842819D01*
X185734228Y-109842818D01*
X186026757Y-109726998D01*
X186026758Y-109726997D01*
X186026756Y-109726997D01*
X186026766Y-109726994D01*
X186302484Y-109575416D01*
X186557030Y-109390478D01*
X186786390Y-109175094D01*
X186986947Y-108932663D01*
X187155537Y-108667007D01*
X187289503Y-108382315D01*
X187386731Y-108083079D01*
X187445688Y-107774015D01*
X187447144Y-107750870D01*
X187465444Y-107460005D01*
X187465444Y-107459994D01*
X187445689Y-107145995D01*
X187445688Y-107145988D01*
X187445688Y-107145985D01*
X187386731Y-106836921D01*
X187289503Y-106537685D01*
X187251559Y-106457051D01*
X187167952Y-106279376D01*
X187155537Y-106252993D01*
X186986947Y-105987337D01*
X186985946Y-105986127D01*
X186786393Y-105744909D01*
X186786391Y-105744907D01*
X186746159Y-105707126D01*
X186557030Y-105529522D01*
X186557027Y-105529520D01*
X186557021Y-105529515D01*
X186302495Y-105344591D01*
X186302488Y-105344586D01*
X186302484Y-105344584D01*
X186026766Y-105193006D01*
X186026764Y-105193005D01*
X186026760Y-105193003D01*
X185828852Y-105114645D01*
X185773767Y-105071664D01*
X185750664Y-105005724D01*
X185750500Y-104999353D01*
X185750500Y-104476482D01*
X185770185Y-104409443D01*
X185822989Y-104363688D01*
X185828843Y-104361193D01*
X185921302Y-104324587D01*
X186066757Y-104266998D01*
X186066758Y-104266997D01*
X186066756Y-104266997D01*
X186066766Y-104266994D01*
X186342484Y-104115416D01*
X186597030Y-103930478D01*
X186826390Y-103715094D01*
X187026947Y-103472663D01*
X187195537Y-103207007D01*
X187329503Y-102922315D01*
X187426731Y-102623079D01*
X187485688Y-102314015D01*
X187485689Y-102314004D01*
X187505444Y-102000005D01*
X187505444Y-101999994D01*
X187485689Y-101685995D01*
X187485688Y-101685988D01*
X187485688Y-101685985D01*
X187426731Y-101376921D01*
X187329503Y-101077685D01*
X187195537Y-100792993D01*
X187085261Y-100619225D01*
X187026948Y-100527338D01*
X187026945Y-100527334D01*
X186826393Y-100284909D01*
X186826391Y-100284907D01*
X186597031Y-100069523D01*
X186597021Y-100069515D01*
X186342495Y-99884591D01*
X186342488Y-99884586D01*
X186342484Y-99884584D01*
X186066766Y-99733006D01*
X186066763Y-99733004D01*
X186066758Y-99733002D01*
X186066757Y-99733001D01*
X185774228Y-99617181D01*
X185774225Y-99617180D01*
X185469476Y-99538934D01*
X185469463Y-99538932D01*
X185157329Y-99499500D01*
X185157318Y-99499500D01*
X184842682Y-99499500D01*
X184842670Y-99499500D01*
X184530536Y-99538932D01*
X184530523Y-99538934D01*
X184225774Y-99617180D01*
X184225771Y-99617181D01*
X183933242Y-99733001D01*
X183933241Y-99733002D01*
X183657516Y-99884584D01*
X183657504Y-99884591D01*
X183402978Y-100069515D01*
X183402968Y-100069523D01*
X183173608Y-100284907D01*
X183173606Y-100284909D01*
X182973054Y-100527334D01*
X182973051Y-100527338D01*
X182804464Y-100792990D01*
X182804461Y-100792996D01*
X182670499Y-101077678D01*
X182670497Y-101077683D01*
X182573270Y-101376916D01*
X182514311Y-101685988D01*
X182514310Y-101685995D01*
X182494556Y-101999994D01*
X182494556Y-102000005D01*
X182514310Y-102314004D01*
X182514311Y-102314011D01*
X182573270Y-102623083D01*
X182670497Y-102922316D01*
X182670499Y-102922321D01*
X182804461Y-103207003D01*
X182804464Y-103207009D01*
X182973051Y-103472661D01*
X182973054Y-103472665D01*
X183173606Y-103715090D01*
X183173608Y-103715092D01*
X183402968Y-103930476D01*
X183402978Y-103930484D01*
X183657504Y-104115408D01*
X183657509Y-104115410D01*
X183657516Y-104115416D01*
X183933234Y-104266994D01*
X183933239Y-104266996D01*
X183933241Y-104266997D01*
X183933242Y-104266998D01*
X184111670Y-104337641D01*
X184171147Y-104361190D01*
X184226232Y-104404170D01*
X184249336Y-104470110D01*
X184249500Y-104476482D01*
X184249500Y-104967680D01*
X184229815Y-105034719D01*
X184177011Y-105080474D01*
X184171147Y-105082972D01*
X183893242Y-105193001D01*
X183893241Y-105193002D01*
X183617516Y-105344584D01*
X183617504Y-105344591D01*
X183362978Y-105529515D01*
X183362968Y-105529523D01*
X183133608Y-105744907D01*
X183133606Y-105744909D01*
X182933054Y-105987334D01*
X182933051Y-105987338D01*
X182764464Y-106252990D01*
X182764461Y-106252996D01*
X182630499Y-106537678D01*
X182630497Y-106537683D01*
X182533270Y-106836916D01*
X182474311Y-107145988D01*
X182474310Y-107145995D01*
X182454556Y-107459994D01*
X182454556Y-107460005D01*
X182466849Y-107655403D01*
X182451413Y-107723546D01*
X182401586Y-107772526D01*
X182343094Y-107787189D01*
X132667684Y-107787189D01*
X132600645Y-107767504D01*
X132580003Y-107750870D01*
X131286186Y-106457051D01*
X131286182Y-106457048D01*
X131163268Y-106374919D01*
X131163255Y-106374912D01*
X131026684Y-106318343D01*
X131026674Y-106318340D01*
X130881687Y-106289500D01*
X130881685Y-106289500D01*
X130646585Y-106289500D01*
X130579546Y-106269815D01*
X130533791Y-106217011D01*
X130528654Y-106203818D01*
X130457921Y-105986125D01*
X130457919Y-105986120D01*
X130326637Y-105707132D01*
X130326633Y-105707126D01*
X130161422Y-105446793D01*
X130161420Y-105446791D01*
X130161416Y-105446784D01*
X129964869Y-105209201D01*
X129740096Y-104998124D01*
X129740093Y-104998122D01*
X129740087Y-104998117D01*
X129490651Y-104816891D01*
X129490644Y-104816886D01*
X129490640Y-104816884D01*
X129220435Y-104668337D01*
X129220432Y-104668335D01*
X129220427Y-104668333D01*
X129220426Y-104668332D01*
X128933746Y-104554828D01*
X128933743Y-104554827D01*
X128635089Y-104478146D01*
X128635076Y-104478144D01*
X128329183Y-104439500D01*
X128329172Y-104439500D01*
X128020828Y-104439500D01*
X128020816Y-104439500D01*
X127714923Y-104478144D01*
X127714910Y-104478146D01*
X127416256Y-104554827D01*
X127416253Y-104554828D01*
X127129573Y-104668332D01*
X127129572Y-104668333D01*
X126859360Y-104816884D01*
X126859348Y-104816891D01*
X126609912Y-104998117D01*
X126609902Y-104998125D01*
X126385132Y-105209199D01*
X126188577Y-105446793D01*
X126023366Y-105707126D01*
X126023362Y-105707132D01*
X125892080Y-105986120D01*
X125892078Y-105986125D01*
X125796795Y-106279376D01*
X125739015Y-106582267D01*
X125739014Y-106582274D01*
X125719655Y-106889994D01*
X125719655Y-106890005D01*
X125739014Y-107197725D01*
X125739015Y-107197732D01*
X125739016Y-107197736D01*
X125789046Y-107460005D01*
X125796795Y-107500623D01*
X125892078Y-107793874D01*
X125892080Y-107793879D01*
X126023362Y-108072867D01*
X126023366Y-108072873D01*
X126036493Y-108093558D01*
X126055794Y-108160709D01*
X126036493Y-108226442D01*
X126023366Y-108247126D01*
X126023362Y-108247132D01*
X125892080Y-108526120D01*
X125892078Y-108526125D01*
X125796795Y-108819376D01*
X125739015Y-109122267D01*
X125739014Y-109122274D01*
X125719655Y-109429994D01*
X125719655Y-109430005D01*
X125739014Y-109737725D01*
X125739015Y-109737732D01*
X125739016Y-109737736D01*
X125781510Y-109960500D01*
X125796795Y-110040623D01*
X125892078Y-110333874D01*
X125892080Y-110333879D01*
X126023362Y-110612867D01*
X126023366Y-110612873D01*
X126036493Y-110633558D01*
X126055794Y-110700709D01*
X126036493Y-110766442D01*
X126023366Y-110787126D01*
X126023362Y-110787132D01*
X125892080Y-111066120D01*
X125892078Y-111066125D01*
X125796795Y-111359376D01*
X125739015Y-111662267D01*
X125739014Y-111662274D01*
X125719655Y-111969994D01*
X125719655Y-111970005D01*
X125739014Y-112277725D01*
X125739015Y-112277732D01*
X125739728Y-112281470D01*
X125794583Y-112569031D01*
X125796795Y-112580623D01*
X125892078Y-112873874D01*
X125892080Y-112873879D01*
X126023362Y-113152867D01*
X126023366Y-113152873D01*
X126036493Y-113173558D01*
X126055794Y-113240709D01*
X126036493Y-113306442D01*
X126023366Y-113327126D01*
X126023362Y-113327132D01*
X125892080Y-113606120D01*
X125892078Y-113606125D01*
X125796795Y-113899376D01*
X125739015Y-114202267D01*
X125739014Y-114202274D01*
X125719655Y-114509994D01*
X125719655Y-114510005D01*
X125739014Y-114817725D01*
X125739015Y-114817732D01*
X125757586Y-114915083D01*
X125781510Y-115040500D01*
X125796795Y-115120623D01*
X125889448Y-115405781D01*
X125891443Y-115475622D01*
X125886078Y-115491551D01*
X125798127Y-115703885D01*
X125798127Y-115703887D01*
X125739317Y-115948848D01*
X125724500Y-116137112D01*
X125724500Y-117962887D01*
X125739317Y-118151151D01*
X125786349Y-118347053D01*
X125782858Y-118416836D01*
X125742194Y-118473653D01*
X125677268Y-118499466D01*
X125665775Y-118500000D01*
X118124000Y-118500000D01*
X118056961Y-118480315D01*
X118011206Y-118427511D01*
X118000000Y-118376000D01*
X118000000Y-95624000D01*
X118019685Y-95556961D01*
X118072489Y-95511206D01*
X118124000Y-95500000D01*
X124993275Y-95500000D01*
X125060314Y-95519685D01*
G37*
G04 #@! TD.AperFunction*
M02*
