M48
; DRILL file {KiCad 8.0.6-1.fc41} date 2024-12-03T00:06:38+0100
; FORMAT={-:-/ absolute / inch / decimal}
; #@! TF.CreationDate,2024-12-03T00:06:38+01:00
; #@! TF.GenerationSoftware,Kicad,Pcbnew,8.0.6-1.fc41
; #@! TF.FileFunction,MixedPlating,1,2
FMAT,2
INCH
; #@! TA.AperFunction,Plated,PTH,ComponentDrill
T1C0.0315
; #@! TA.AperFunction,Plated,PTH,ComponentDrill
T2C0.0354
; #@! TA.AperFunction,Plated,PTH,ComponentDrill
T3C0.0394
; #@! TA.AperFunction,Plated,PTH,ViaDrill
T4C0.1260
%
G90
G05
T1
X7.2835Y-4.0157
X7.4803Y-4.0157
T2
X7.2819Y-4.2307
X7.3819Y-4.4307
X7.4819Y-4.2307
T3
X5.0463Y-4.1083
X5.0463Y-4.2083
X5.0463Y-4.3083
X5.0463Y-4.4083
X5.0463Y-4.5083
X5.0463Y-4.6083
X5.2362Y-4.1732
X5.2362Y-4.3701
X5.4331Y-4.1732
X5.4331Y-4.3701
X5.9252Y-4.1732
X5.9252Y-4.3701
X6.122Y-4.1732
X6.122Y-4.3701
X6.5945Y-4.1732
X6.5945Y-4.3701
X6.7913Y-4.1732
X6.7913Y-4.3701
T4
X5.0142Y-3.878
X6.6142Y-3.878
M30
